<?xml version="1.0" standalone="no"?>
<svg xmlns="http://www.w3.org/2000/svg" width="1120" height="554.7705078125"><g transform="translate(70,20)"><g class="x axis" transform="translate(0,400)" fill="none" font-size="10" font-family="sans-serif" text-anchor="middle"><path class="domain" stroke="#000" d="M0.5,6V0.5H1000.5V6"/><g class="tick" opacity="1" transform="translate(177.41935483870972,0)"><line stroke="#000" y2="6"/><text fill="#000" y="9" dy="-0.5em" dx="-.8em" style="text-anchor: end;" transform="rotate(-90)">Control (n=3)</text></g><g class="tick" opacity="1" transform="translate(500,0)"><line stroke="#000" y2="6"/><text fill="#000" y="9" dy="-0.5em" dx="-.8em" style="text-anchor: end;" transform="rotate(-90)">Subject_EC (n=23)</text></g><g class="tick" opacity="1" transform="translate(822.5806451612904,0)"><line stroke="#000" y2="6"/><text fill="#000" y="9" dy="-0.5em" dx="-.8em" style="text-anchor: end;" transform="rotate(-90)">Subject_VL (n=23)</text></g></g><g class="y axis" fill="none" font-size="10" font-family="sans-serif" text-anchor="end"><path class="domain" stroke="#000" d="M-6,400.5H0.5V0.5H-6"/><g class="tick" opacity="1" transform="translate(0,400.5)"><line stroke="#000" x2="-6"/><text fill="#000" x="-9" dy="0.32em">0</text></g><g class="tick" opacity="1" transform="translate(0,350.5)"><line stroke="#000" x2="-6"/><text fill="#000" x="-9" dy="0.32em">10</text></g><g class="tick" opacity="1" transform="translate(0,300.5)"><line stroke="#000" x2="-6"/><text fill="#000" x="-9" dy="0.32em">20</text></g><g class="tick" opacity="1" transform="translate(0,250.5)"><line stroke="#000" x2="-6"/><text fill="#000" x="-9" dy="0.32em">30</text></g><g class="tick" opacity="1" transform="translate(0,200.5)"><line stroke="#000" x2="-6"/><text fill="#000" x="-9" dy="0.32em">40</text></g><g class="tick" opacity="1" transform="translate(0,150.5)"><line stroke="#000" x2="-6"/><text fill="#000" x="-9" dy="0.32em">50</text></g><g class="tick" opacity="1" transform="translate(0,100.5)"><line stroke="#000" x2="-6"/><text fill="#000" x="-9" dy="0.32em">60</text></g><g class="tick" opacity="1" transform="translate(0,50.5)"><line stroke="#000" x2="-6"/><text fill="#000" x="-9" dy="0.32em">70</text></g><g class="tick" opacity="1" transform="translate(0,0.5)"><line stroke="#000" x2="-6"/><text fill="#000" x="-9" dy="0.32em">80</text></g></g><text class="x label" text-anchor="middle" transform="translate(500,524.7705078125)" style="font-style: normal; font-variant: normal; font-weight: normal; font-stretch: normal; font-size: 12px; line-height: normal; font-family: sans-serif;">subject</text><text class="y label" text-anchor="middle" transform="translate(-50,200)rotate(-90)" style="font-style: normal; font-variant: normal; font-weight: normal; font-stretch: normal; font-size: 12px; line-height: normal; font-family: sans-serif;">faith_pd</text><line class="center" x1="500" y1="354.6546857025" x2="500" y2="146.80789130250002" stroke-dasharray="2,2" stroke-width="1" stroke="black"/><line class="center" x1="177.41935483870972" y1="384.0987222275" x2="177.41935483870972" y2="382.4818963375" stroke-dasharray="2,2" stroke-width="1" stroke="black"/><line class="center" x1="822.5806451612904" y1="349.8527531125" x2="822.5806451612904" y2="205.30981120250001" stroke-dasharray="2,2" stroke-width="1" stroke="black"/><g class="outlier" transform="translate(177.41935483870972,0)"/><g class="outlier" transform="translate(500,0)"/><g class="outlier" transform="translate(822.5806451612904,0)"><circle r="4" stroke-width="1" stroke="black" stroke-opacity="0.3" fill="black" fill-opacity="0.33" cx="0" cy="40.1112634525"/></g><rect class="box" x="354.8387096774194" y="206.11803443" width="290.3225806451613" height="95.36333239500001" fill="white" stroke-width="1" stroke="black"/><rect class="box" x="32.25806451612908" y="382.7787072975" width="290.3225806451613" height="0.8084129450000432" fill="white" stroke-width="1" stroke="black"/><rect class="box" x="677.4193548387098" y="227.83412760250002" width="290.3225806451613" height="83.32944670749998" fill="white" stroke-width="1" stroke="black"/><line class="median" x1="354.8387096774194" y1="268.6342067525" x2="645.1612903225807" y2="268.6342067525" stroke-width="1" stroke="black"/><line class="median" x1="32.25806451612908" y1="383.0755182575" x2="322.58064516129036" y2="383.0755182575" stroke-width="1" stroke="black"/><line class="median" x1="677.4193548387098" y1="277.7462046175" x2="967.741935483871" y2="277.7462046175" stroke-width="1" stroke="black"/><g class="whisker" transform="translate(427.4193548387097,0)"><line class="median" x1="0" y1="354.6546857025" x2="145.16129032258064" y2="354.6546857025" stroke-width="1" stroke="black"/><line class="median" x1="0" y1="146.80789130250002" x2="145.16129032258064" y2="146.80789130250002" stroke-width="1" stroke="black"/></g><g class="whisker" transform="translate(104.8387096774194,0)"><line class="median" x1="0" y1="384.0987222275" x2="145.16129032258064" y2="384.0987222275" stroke-width="1" stroke="black"/><line class="median" x1="0" y1="382.4818963375" x2="145.16129032258064" y2="382.4818963375" stroke-width="1" stroke="black"/></g><g class="whisker" transform="translate(750.0000000000001,0)"><line class="median" x1="0" y1="349.8527531125" x2="145.16129032258064" y2="349.8527531125" stroke-width="1" stroke="black"/><line class="median" x1="0" y1="205.30981120250001" x2="145.16129032258064" y2="205.30981120250001" stroke-width="1" stroke="black"/></g></g></svg>