<?xml version="1.0" standalone="no"?>
<svg xmlns="http://www.w3.org/2000/svg" width="1120" height="554.7705078125"><g transform="translate(70,20)"><g class="x axis" transform="translate(0,400)" fill="none" font-size="10" font-family="sans-serif" text-anchor="middle"><path class="domain" stroke="#000" d="M0.5,6V0.5H1000.5V6"/><g class="tick" opacity="1" transform="translate(177.41935483870972,0)"><line stroke="#000" y2="6"/><text fill="#000" y="9" dy="-0.5em" dx="-.8em" style="text-anchor: end;" transform="rotate(-90)">Control (n=3)</text></g><g class="tick" opacity="1" transform="translate(500,0)"><line stroke="#000" y2="6"/><text fill="#000" y="9" dy="-0.5em" dx="-.8em" style="text-anchor: end;" transform="rotate(-90)">Subject_EC (n=23)</text></g><g class="tick" opacity="1" transform="translate(822.5806451612904,0)"><line stroke="#000" y2="6"/><text fill="#000" y="9" dy="-0.5em" dx="-.8em" style="text-anchor: end;" transform="rotate(-90)">Subject_VL (n=23)</text></g></g><g class="y axis" fill="none" font-size="10" font-family="sans-serif" text-anchor="end"><path class="domain" stroke="#000" d="M-6,400.5H0.5V0.5H-6"/><g class="tick" opacity="1" transform="translate(0,400.5)"><line stroke="#000" x2="-6"/><text fill="#000" x="-9" dy="0.32em">0.55</text></g><g class="tick" opacity="1" transform="translate(0,350.50000000000006)"><line stroke="#000" x2="-6"/><text fill="#000" x="-9" dy="0.32em">0.60</text></g><g class="tick" opacity="1" transform="translate(0,300.5)"><line stroke="#000" x2="-6"/><text fill="#000" x="-9" dy="0.32em">0.65</text></g><g class="tick" opacity="1" transform="translate(0,250.50000000000006)"><line stroke="#000" x2="-6"/><text fill="#000" x="-9" dy="0.32em">0.70</text></g><g class="tick" opacity="1" transform="translate(0,200.5)"><line stroke="#000" x2="-6"/><text fill="#000" x="-9" dy="0.32em">0.75</text></g><g class="tick" opacity="1" transform="translate(0,150.49999999999994)"><line stroke="#000" x2="-6"/><text fill="#000" x="-9" dy="0.32em">0.80</text></g><g class="tick" opacity="1" transform="translate(0,100.5)"><line stroke="#000" x2="-6"/><text fill="#000" x="-9" dy="0.32em">0.85</text></g><g class="tick" opacity="1" transform="translate(0,50.49999999999994)"><line stroke="#000" x2="-6"/><text fill="#000" x="-9" dy="0.32em">0.90</text></g><g class="tick" opacity="1" transform="translate(0,0.5)"><line stroke="#000" x2="-6"/><text fill="#000" x="-9" dy="0.32em">0.95</text></g></g><text class="x label" text-anchor="middle" transform="translate(500,524.7705078125)" style="font-style: normal; font-variant: normal; font-weight: normal; font-stretch: normal; font-size: 12px; line-height: normal; font-family: sans-serif;">subject</text><text class="y label" text-anchor="middle" transform="translate(-50,200)rotate(-90)" style="font-style: normal; font-variant: normal; font-weight: normal; font-stretch: normal; font-size: 12px; line-height: normal; font-family: sans-serif;">pielou_e</text><g class="outlier" transform="translate(177.41935483870972,0)"/><line class="center" x1="177.41935483870972" y1="97.68125480000003" x2="177.41935483870972" y2="57.86127629999993" stroke-dasharray="2,2" stroke-width="1" stroke="black"/><rect class="box" x="32.25806451612908" y="77.6571183499999" width="290.3225806451613" height="19.90998925000008" fill="white" stroke-width="1" stroke="black"/><line class="median" x1="32.25806451612908" y1="97.4529604" x2="322.58064516129036" y2="97.4529604" stroke-width="1" stroke="black"/><g class="whisker" transform="translate(104.8387096774194,0)"><line class="median" x1="0" y1="97.68125480000003" x2="145.16129032258064" y2="97.68125480000003" stroke-width="1" stroke="black"/><line class="median" x1="0" y1="57.86127629999993" x2="145.16129032258064" y2="57.86127629999993" stroke-width="1" stroke="black"/></g><line class="center" x1="500" y1="174.04121759999995" x2="500" y2="44.719907199999966" stroke-dasharray="2,2" stroke-width="1" stroke="black"/><line class="center" x1="822.5806451612904" y1="214.3155826" x2="822.5806451612904" y2="50.992064299999925" stroke-dasharray="2,2" stroke-width="1" stroke="black"/><g class="outlier" transform="translate(500,0)"><circle r="4" stroke-width="1" stroke="black" stroke-opacity="0.3" fill="black" fill-opacity="0.33" cx="0" cy="354.50352840000005"/></g><g class="outlier" transform="translate(822.5806451612904,0)"><circle r="4" stroke-width="1" stroke="black" stroke-opacity="0.3" fill="black" fill-opacity="0.33" cx="0" cy="316.9274978"/><circle r="4" stroke-width="1" stroke="black" stroke-opacity="0.3" fill="black" fill-opacity="0.33" cx="0" cy="218.11260049999996"/></g><rect class="box" x="354.8387096774194" y="70.12228294999989" width="290.3225806451613" height="63.60492555000013" fill="white" stroke-width="1" stroke="black"/><rect class="box" x="677.4193548387098" y="73.3848625" width="290.3225806451613" height="56.97301245" fill="white" stroke-width="1" stroke="black"/><line class="median" x1="354.8387096774194" y1="89.41291310000003" x2="645.1612903225807" y2="89.41291310000003" stroke-width="1" stroke="black"/><line class="median" x1="677.4193548387098" y1="103.88112939999996" x2="967.741935483871" y2="103.88112939999996" stroke-width="1" stroke="black"/><g class="whisker" transform="translate(427.4193548387097,0)"><line class="median" x1="0" y1="174.04121759999995" x2="145.16129032258064" y2="174.04121759999995" stroke-width="1" stroke="black"/><line class="median" x1="0" y1="44.719907199999966" x2="145.16129032258064" y2="44.719907199999966" stroke-width="1" stroke="black"/></g><g class="whisker" transform="translate(750.0000000000001,0)"><line class="median" x1="0" y1="214.3155826" x2="145.16129032258064" y2="214.3155826" stroke-width="1" stroke="black"/><line class="median" x1="0" y1="50.992064299999925" x2="145.16129032258064" y2="50.992064299999925" stroke-width="1" stroke="black"/></g></g></svg>